<svg xmlns="http://www.w3.org/2000/svg" viewBox="0 0 80 80" fill="none">
  <rect width="80" height="80" rx="14" fill="#25D366"/>
  <path d="M40 14C25.6 14 14 25.6 14 40c0 4.6 1.2 9 3.4 12.8L14 66l13.6-3.4C31.2 64.7 35.5 66 40 66c14.4 0 26-11.6 26-26S54.4 14 40 14zm0 4c12.1 0 22 9.9 22 22S52.1 62 40 62c-4 0-7.8-1.1-11-3l-.8-.5-8.1 2 2-7.8-.5-.8C19.9 49.1 18 44.7 18 40c0-12.1 9.9-22 22-22z" fill="white"/>
  <path d="M32.2 27.7c-.5-1.1-1-.8-1.4-.8-.4 0-.8 0-1.2.1-.4.1-1 .4-1.6 1-.5.6-2 2-2 4.8s2 5.6 2.3 6c.3.4 4 6.3 9.8 8.6 1.4.6 2.4.9 3.2 1.1 1.4.4 2.6.3 3.6.2 1.1-.2 3.3-1.4 3.8-2.7.5-1.3.5-2.4.3-2.7-.2-.3-.6-.4-1.2-.7-.6-.3-3.3-1.6-3.8-1.8-.5-.2-.9-.3-1.2.3-.4.6-1.4 1.8-1.7 2.1-.3.4-.6.4-1.1.1-.6-.3-2.3-.9-4.5-2.7-1.6-1.4-2.7-3.2-3.1-3.7-.3-.6 0-.9.3-1.2.3-.3.6-.7.9-1.1.3-.4.4-.6.6-1 .2-.4.1-.8-.1-1.1-.2-.3-1.2-3.1-1.6-4.2z" fill="white"/>
  <text x="40" y="76" font-family="Helvetica, Arial, sans-serif" font-size="10" font-weight="bold" fill="white" text-anchor="middle">WhatsApp</text>
</svg>
