<svg xmlns="http://www.w3.org/2000/svg" viewBox="0 0 24 24" role="img" aria-label="WhatsApp icon">
  <rect width="24" height="24" rx="6" fill="#25D366"/>
  <path d="M12 5.1a6.8 6.8 0 0 0-5.8 10.3L5 19l3.8-1a6.8 6.8 0 1 0 3.2-12.9zm0 1.8a5 5 0 0 1 4.3 7.6A5 5 0 0 1 9 16.6l-.3.2-1.7.5.5-1.6-.2-.3A5 5 0 0 1 12 6.9zm-2 2.4c-.1 0-.3 0-.4.1-.2.2-.6.6-.6 1.4s.6 1.6.7 1.7c.1.1 1.3 2.1 3.3 2.8.5.2.8.3 1 .2.3 0 .9-.4 1-.8.1-.4.1-.8 0-.8s-.4-.2-.9-.5c-.4-.2-.5-.2-.7.1l-.3.5c-.1.1-.2.2-.4.1-.1 0-.7-.2-1.3-.8-.5-.5-.8-1.1-.9-1.3-.1-.1 0-.2.1-.3l.3-.4c.1-.1.1-.2.2-.3 0-.1 0-.2 0-.3s-.4-.9-.5-1.2c-.2-.2-.3-.2-.4-.2z" fill="#ffffff"/>
</svg>
